P3
15 15
256
1 2 3 1 2 3 3 6 9 3 6 9 3 6 9 4 8 12 4 8 12 18 36 54 4 8 12 3 6 9 2 4 6 2 4 6 2 4 6 2 4 6 1 2 3 
1 2 3 2 4 6 3 6 9 3 6 9 3 6 9 4 8 12 5 10 15 16 32 48 5 10 15 3 6 9 2 4 6 2 4 6 2 4 6 2 4 6 2 4 6 
1 2 3 3 6 9 3 6 9 3 6 9 4 8 12 5 10 15 7 14 21 16 32 48 7 14 21 4 8 12 3 6 9 2 4 6 2 4 6 2 4 6 2 4 6 
1 2 3 3 6 9 3 6 9 3 6 9 5 10 15 7 14 21 26 52 78 16 32 48 16 32 48 15 30 45 3 6 9 2 4 6 2 4 6 2 4 6 2 4 6 
1 2 3 3 6 9 3 6 9 5 10 15 5 10 15 35 70 105 16 32 48 16 32 48 16 32 48 7 14 21 3 6 9 2 4 6 2 4 6 2 4 6 2 4 6 
1 2 3 4 8 12 5 10 15 12 24 36 9 18 27 16 32 48 16 32 48 16 32 48 16 32 48 16 32 48 3 6 9 3 6 9 2 4 6 2 4 6 2 4 6 
1 2 3 4 8 12 5 10 15 18 36 54 16 32 48 16 32 48 16 32 48 16 32 48 16 32 48 31 62 93 4 8 12 3 6 9 2 4 6 2 4 6 2 4 6 
1 2 3 7 14 21 9 18 27 16 32 48 16 32 48 16 32 48 16 32 48 16 32 48 16 32 48 7 14 21 4 8 12 3 6 9 2 4 6 2 4 6 2 4 6 
1 2 3 7 14 21 9 18 27 16 32 48 16 32 48 16 32 48 16 32 48 16 32 48 16 32 48 7 14 21 4 8 12 3 6 9 2 4 6 2 4 6 2 4 6 
1 2 3 4 8 12 5 10 15 18 36 54 16 32 48 16 32 48 16 32 48 16 32 48 16 32 48 31 62 93 4 8 12 3 6 9 2 4 6 2 4 6 2 4 6 
1 2 3 4 8 12 5 10 15 12 24 36 9 18 27 16 32 48 16 32 48 16 32 48 16 32 48 16 32 48 3 6 9 3 6 9 2 4 6 2 4 6 2 4 6 
1 2 3 3 6 9 3 6 9 5 10 15 5 10 15 35 70 105 16 32 48 16 32 48 16 32 48 7 14 21 3 6 9 2 4 6 2 4 6 2 4 6 2 4 6 
1 2 3 3 6 9 3 6 9 3 6 9 5 10 15 7 14 21 26 52 78 16 32 48 16 32 48 15 30 45 3 6 9 2 4 6 2 4 6 2 4 6 2 4 6 
1 2 3 3 6 9 3 6 9 3 6 9 4 8 12 5 10 15 7 14 21 16 32 48 7 14 21 4 8 12 3 6 9 2 4 6 2 4 6 2 4 6 2 4 6 
1 2 3 2 4 6 3 6 9 3 6 9 3 6 9 4 8 12 5 10 15 16 32 48 5 10 15 3 6 9 2 4 6 2 4 6 2 4 6 2 4 6 2 4 6 
