P3
50 50
256
1 2 3 1 2 3 1 2 3 1 2 3 2 4 6 2 4 6 2 4 6 3 6 9 3 6 9 3 6 9 3 6 9 3 6 9 3 6 9 3 6 9 3 6 9 3 6 9 3 6 9 4 8 12 4 8 12 4 8 12 4 8 12 5 10 15 6 12 18 10 20 30 9 18 27 16 32 48 4 8 12 4 8 12 4 8 12 3 6 9 3 6 9 3 6 9 2 4 6 2 4 6 2 4 6 2 4 6 2 4 6 2 4 6 2 4 6 2 4 6 2 4 6 2 4 6 2 4 6 2 4 6 2 4 6 2 4 6 2 4 6 1 2 3 1 2 3 1 2 3 
1 2 3 1 2 3 1 2 3 1 2 3 2 4 6 2 4 6 3 6 9 3 6 9 3 6 9 3 6 9 3 6 9 3 6 9 3 6 9 3 6 9 3 6 9 3 6 9 4 8 12 4 8 12 4 8 12 4 8 12 5 10 15 5 10 15 7 14 21 9 18 27 15 30 45 7 14 21 5 10 15 4 8 12 4 8 12 3 6 9 3 6 9 3 6 9 2 4 6 2 4 6 2 4 6 2 4 6 2 4 6 2 4 6 2 4 6 2 4 6 2 4 6 2 4 6 2 4 6 2 4 6 2 4 6 2 4 6 2 4 6 1 2 3 1 2 3 1 2 3 
1 2 3 1 2 3 1 2 3 2 4 6 2 4 6 2 4 6 3 6 9 3 6 9 3 6 9 3 6 9 3 6 9 3 6 9 3 6 9 3 6 9 3 6 9 3 6 9 4 8 12 4 8 12 4 8 12 4 8 12 5 10 15 5 10 15 7 14 21 11 22 33 13 26 39 7 14 21 5 10 15 4 8 12 4 8 12 4 8 12 3 6 9 3 6 9 3 6 9 2 4 6 2 4 6 2 4 6 2 4 6 2 4 6 2 4 6 2 4 6 2 4 6 2 4 6 2 4 6 2 4 6 2 4 6 2 4 6 2 4 6 2 4 6 1 2 3 1 2 3 
1 2 3 1 2 3 1 2 3 2 4 6 2 4 6 3 6 9 3 6 9 3 6 9 3 6 9 3 6 9 3 6 9 3 6 9 3 6 9 3 6 9 3 6 9 4 8 12 4 8 12 4 8 12 4 8 12 5 10 15 5 10 15 6 12 18 15 30 45 16 32 48 56 112 168 8 16 24 5 10 15 5 10 15 4 8 12 4 8 12 3 6 9 3 6 9 3 6 9 2 4 6 2 4 6 2 4 6 2 4 6 2 4 6 2 4 6 2 4 6 2 4 6 2 4 6 2 4 6 2 4 6 2 4 6 2 4 6 2 4 6 2 4 6 1 2 3 1 2 3 
1 2 3 1 2 3 1 2 3 2 4 6 2 4 6 3 6 9 3 6 9 3 6 9 3 6 9 3 6 9 3 6 9 3 6 9 3 6 9 3 6 9 4 8 12 4 8 12 4 8 12 4 8 12 4 8 12 5 10 15 6 12 18 7 14 21 37 74 111 108 216 68 25 50 75 22 44 66 6 12 18 5 10 15 5 10 15 4 8 12 4 8 12 3 6 9 3 6 9 3 6 9 2 4 6 2 4 6 2 4 6 2 4 6 2 4 6 2 4 6 2 4 6 2 4 6 2 4 6 2 4 6 2 4 6 2 4 6 2 4 6 2 4 6 1 2 3 1 2 3 
1 2 3 1 2 3 1 2 3 2 4 6 3 6 9 3 6 9 3 6 9 3 6 9 3 6 9 3 6 9 3 6 9 3 6 9 3 6 9 3 6 9 4 8 12 4 8 12 4 8 12 4 8 12 5 10 15 6 12 18 6 12 18 8 16 24 18 36 54 16 32 48 16 32 48 18 36 54 7 14 21 5 10 15 5 10 15 4 8 12 4 8 12 3 6 9 3 6 9 3 6 9 2 4 6 2 4 6 2 4 6 2 4 6 2 4 6 2 4 6 2 4 6 2 4 6 2 4 6 2 4 6 2 4 6 2 4 6 2 4 6 2 4 6 1 2 3 1 2 3 
1 2 3 1 2 3 2 4 6 2 4 6 3 6 9 3 6 9 3 6 9 3 6 9 3 6 9 3 6 9 3 6 9 3 6 9 3 6 9 4 8 12 4 8 12 4 8 12 4 8 12 5 10 15 6 12 18 6 12 18 7 14 21 8 16 24 34 68 102 16 32 48 16 32 48 32 64 96 7 14 21 6 12 18 5 10 15 5 10 15 4 8 12 3 6 9 3 6 9 3 6 9 3 6 9 2 4 6 2 4 6 2 4 6 2 4 6 2 4 6 2 4 6 2 4 6 2 4 6 2 4 6 2 4 6 2 4 6 2 4 6 2 4 6 2 4 6 1 2 3 
1 2 3 1 2 3 2 4 6 3 6 9 3 6 9 3 6 9 3 6 9 3 6 9 3 6 9 3 6 9 3 6 9 3 6 9 3 6 9 4 8 12 4 8 12 4 8 12 4 8 12 5 10 15 7 14 21 7 14 21 7 14 21 9 18 27 60 120 180 16 32 48 16 32 48 15 30 45 8 16 24 6 12 18 6 12 18 6 12 18 5 10 15 4 8 12 3 6 9 3 6 9 3 6 9 2 4 6 2 4 6 2 4 6 2 4 6 2 4 6 2 4 6 2 4 6 2 4 6 2 4 6 2 4 6 2 4 6 2 4 6 2 4 6 2 4 6 1 2 3 
1 2 3 1 2 3 2 4 6 3 6 9 3 6 9 3 6 9 3 6 9 3 6 9 3 6 9 3 6 9 3 6 9 3 6 9 4 8 12 4 8 12 4 8 12 4 8 12 5 10 15 8 16 24 19 38 57 9 18 27 12 24 36 11 22 33 15 30 45 16 32 48 16 32 48 13 26 39 10 20 30 9 18 27 7 14 21 7 14 21 6 12 18 4 8 12 3 6 9 3 6 9 3 6 9 2 4 6 2 4 6 2 4 6 2 4 6 2 4 6 2 4 6 2 4 6 2 4 6 2 4 6 2 4 6 2 4 6 2 4 6 2 4 6 2 4 6 1 2 3 
1 2 3 1 2 3 2 4 6 3 6 9 3 6 9 3 6 9 3 6 9 3 6 9 3 6 9 3 6 9 3 6 9 4 8 12 4 8 12 4 8 12 5 10 15 5 10 15 6 12 18 7 14 21 45 90 135 47 94 141 23 46 69 19 38 57 56 112 168 16 32 48 16 32 48 55 110 165 16 32 48 38 76 114 8 16 24 9 18 27 7 14 21 4 8 12 3 6 9 3 6 9 3 6 9 3 6 9 2 4 6 2 4 6 2 4 6 2 4 6 2 4 6 2 4 6 2 4 6 2 4 6 2 4 6 2 4 6 2 4 6 2 4 6 2 4 6 1 2 3 
1 2 3 1 2 3 3 6 9 3 6 9 3 6 9 3 6 9 3 6 9 3 6 9 3 6 9 3 6 9 3 6 9 4 8 12 4 8 12 5 10 15 5 10 15 5 10 15 6 12 18 8 16 24 66 132 198 148 40 188 26 52 78 16 32 48 16 32 48 16 32 48 16 32 48 16 32 48 16 32 48 16 32 48 12 24 36 15 30 45 15 30 45 5 10 15 3 6 9 3 6 9 3 6 9 3 6 9 2 4 6 2 4 6 2 4 6 2 4 6 2 4 6 2 4 6 2 4 6 2 4 6 2 4 6 2 4 6 2 4 6 2 4 6 2 4 6 1 2 3 
1 2 3 2 4 6 3 6 9 3 6 9 3 6 9 3 6 9 3 6 9 3 6 9 3 6 9 3 6 9 4 8 12 4 8 12 5 10 15 5 10 15 5 10 15 6 12 18 6 12 18 8 16 24 132 8 140 16 32 48 16 32 48 16 32 48 16 32 48 16 32 48 16 32 48 16 32 48 16 32 48 16 32 48 40 80 120 16 32 48 24 48 72 5 10 15 4 8 12 3 6 9 3 6 9 3 6 9 2 4 6 2 4 6 2 4 6 2 4 6 2 4 6 2 4 6 2 4 6 2 4 6 2 4 6 2 4 6 2 4 6 2 4 6 2 4 6 2 4 6 
1 2 3 2 4 6 3 6 9 3 6 9 3 6 9 3 6 9 3 6 9 3 6 9 3 6 9 4 8 12 4 8 12 5 10 15 5 10 15 5 10 15 5 10 15 6 12 18 6 12 18 9 18 27 15 30 45 16 32 48 16 32 48 16 32 48 16 32 48 16 32 48 16 32 48 16 32 48 16 32 48 16 32 48 16 32 48 16 32 48 7 14 21 5 10 15 4 8 12 3 6 9 3 6 9 3 6 9 3 6 9 2 4 6 2 4 6 2 4 6 2 4 6 2 4 6 2 4 6 2 4 6 2 4 6 2 4 6 2 4 6 2 4 6 2 4 6 2 4 6 
1 2 3 2 4 6 3 6 9 3 6 9 3 6 9 3 6 9 3 6 9 3 6 9 4 8 12 4 8 12 5 10 15 5 10 15 5 10 15 5 10 15 6 12 18 6 12 18 8 16 24 18 36 54 16 32 48 16 32 48 16 32 48 16 32 48 16 32 48 16 32 48 16 32 48 16 32 48 16 32 48 16 32 48 16 32 48 15 30 45 7 14 21 5 10 15 4 8 12 3 6 9 3 6 9 3 6 9 3 6 9 2 4 6 2 4 6 2 4 6 2 4 6 2 4 6 2 4 6 2 4 6 2 4 6 2 4 6 2 4 6 2 4 6 2 4 6 2 4 6 
1 2 3 2 4 6 3 6 9 3 6 9 3 6 9 3 6 9 3 6 9 4 8 12 4 8 12 7 14 21 6 12 18 6 12 18 5 10 15 6 12 18 6 12 18 7 14 21 9 18 27 16 32 48 16 32 48 16 32 48 16 32 48 16 32 48 16 32 48 16 32 48 16 32 48 16 32 48 16 32 48 16 32 48 16 32 48 39 78 117 8 16 24 5 10 15 4 8 12 3 6 9 3 6 9 3 6 9 3 6 9 2 4 6 2 4 6 2 4 6 2 4 6 2 4 6 2 4 6 2 4 6 2 4 6 2 4 6 2 4 6 2 4 6 2 4 6 2 4 6 
1 2 3 3 6 9 3 6 9 3 6 9 3 6 9 3 6 9 4 8 12 4 8 12 5 10 15 9 18 27 7 14 21 7 14 21 7 14 21 7 14 21 7 14 21 7 14 21 10 20 30 48 96 144 16 32 48 16 32 48 16 32 48 16 32 48 16 32 48 16 32 48 16 32 48 16 32 48 16 32 48 16 32 48 16 32 48 16 32 48 9 18 27 6 12 18 4 8 12 3 6 9 3 6 9 3 6 9 3 6 9 2 4 6 2 4 6 2 4 6 2 4 6 2 4 6 2 4 6 2 4 6 2 4 6 2 4 6 2 4 6 2 4 6 2 4 6 2 4 6 
1 2 3 3 6 9 3 6 9 3 6 9 4 8 12 4 8 12 4 8 12 5 10 15 6 12 18 10 20 30 9 18 27 8 16 24 18 36 54 8 16 24 7 14 21 8 16 24 18 36 54 16 32 48 16 32 48 16 32 48 16 32 48 16 32 48 16 32 48 16 32 48 16 32 48 16 32 48 16 32 48 16 32 48 16 32 48 16 32 48 32 64 96 7 14 21 4 8 12 3 6 9 3 6 9 3 6 9 3 6 9 2 4 6 2 4 6 2 4 6 2 4 6 2 4 6 2 4 6 2 4 6 2 4 6 2 4 6 2 4 6 2 4 6 2 4 6 2 4 6 
1 2 3 3 6 9 3 6 9 4 8 12 4 8 12 4 8 12 4 8 12 5 10 15 6 12 18 8 16 24 18 36 54 11 22 33 14 28 42 11 22 33 9 18 27 9 18 27 13 26 39 16 32 48 16 32 48 16 32 48 16 32 48 16 32 48 16 32 48 16 32 48 16 32 48 16 32 48 16 32 48 16 32 48 16 32 48 16 32 48 46 92 138 6 12 18 4 8 12 4 8 12 3 6 9 3 6 9 3 6 9 2 4 6 2 4 6 2 4 6 2 4 6 2 4 6 2 4 6 2 4 6 2 4 6 2 4 6 2 4 6 2 4 6 2 4 6 2 4 6 
1 2 3 3 6 9 4 8 12 4 8 12 4 8 12 4 8 12 5 10 15 5 10 15 6 12 18 8 16 24 14 28 42 34 68 102 20 40 60 16 32 48 12 24 36 10 20 30 152 48 200 16 32 48 16 32 48 16 32 48 16 32 48 16 32 48 16 32 48 16 32 48 16 32 48 16 32 48 16 32 48 16 32 48 16 32 48 16 32 48 13 26 39 6 12 18 4 8 12 4 8 12 3 6 9 3 6 9 3 6 9 3 6 9 2 4 6 2 4 6 2 4 6 2 4 6 2 4 6 2 4 6 2 4 6 2 4 6 2 4 6 2 4 6 2 4 6 2 4 6 
1 2 3 3 6 9 4 8 12 4 8 12 4 8 12 4 8 12 5 10 15 5 10 15 7 14 21 8 16 24 20 40 60 16 32 48 16 32 48 16 32 48 25 50 75 12 24 36 16 32 48 16 32 48 16 32 48 16 32 48 16 32 48 16 32 48 16 32 48 16 32 48 16 32 48 16 32 48 16 32 48 16 32 48 16 32 48 16 32 48 25 50 75 6 12 18 4 8 12 4 8 12 3 6 9 3 6 9 3 6 9 3 6 9 2 4 6 2 4 6 2 4 6 2 4 6 2 4 6 2 4 6 2 4 6 2 4 6 2 4 6 2 4 6 2 4 6 2 4 6 
1 2 3 4 8 12 4 8 12 4 8 12 4 8 12 5 10 15 5 10 15 5 10 15 7 14 21 12 24 36 18 36 54 16 32 48 16 32 48 16 32 48 16 32 48 15 30 45 133 10 143 16 32 48 16 32 48 16 32 48 16 32 48 16 32 48 16 32 48 16 32 48 16 32 48 16 32 48 16 32 48 16 32 48 16 32 48 16 32 48 31 62 93 6 12 18 4 8 12 4 8 12 3 6 9 3 6 9 3 6 9 3 6 9 2 4 6 2 4 6 2 4 6 2 4 6 2 4 6 2 4 6 2 4 6 2 4 6 2 4 6 2 4 6 2 4 6 2 4 6 
1 2 3 4 8 12 4 8 12 4 8 12 4 8 12 5 10 15 5 10 15 7 14 21 8 16 24 11 22 33 87 174 5 16 32 48 16 32 48 16 32 48 16 32 48 39 78 117 16 32 48 16 32 48 16 32 48 16 32 48 16 32 48 16 32 48 16 32 48 16 32 48 16 32 48 16 32 48 16 32 48 16 32 48 16 32 48 16 32 48 13 26 39 5 10 15 4 8 12 4 8 12 3 6 9 3 6 9 3 6 9 3 6 9 2 4 6 2 4 6 2 4 6 2 4 6 2 4 6 2 4 6 2 4 6 2 4 6 2 4 6 2 4 6 2 4 6 2 4 6 
1 2 3 4 8 12 4 8 12 4 8 12 5 10 15 6 12 18 6 12 18 8 16 24 11 22 33 13 26 39 16 32 48 16 32 48 16 32 48 16 32 48 16 32 48 16 32 48 16 32 48 16 32 48 16 32 48 16 32 48 16 32 48 16 32 48 16 32 48 16 32 48 16 32 48 16 32 48 16 32 48 16 32 48 16 32 48 16 32 48 10 20 30 5 10 15 4 8 12 4 8 12 3 6 9 3 6 9 3 6 9 3 6 9 2 4 6 2 4 6 2 4 6 2 4 6 2 4 6 2 4 6 2 4 6 2 4 6 2 4 6 2 4 6 2 4 6 2 4 6 
1 2 3 5 10 15 4 8 12 5 10 15 6 12 18 6 12 18 7 14 21 9 18 27 19 38 57 18 36 54 16 32 48 16 32 48 16 32 48 16 32 48 16 32 48 16 32 48 16 32 48 16 32 48 16 32 48 16 32 48 16 32 48 16 32 48 16 32 48 16 32 48 16 32 48 16 32 48 16 32 48 16 32 48 16 32 48 16 32 48 7 14 21 5 10 15 4 8 12 4 8 12 3 6 9 3 6 9 3 6 9 3 6 9 2 4 6 2 4 6 2 4 6 2 4 6 2 4 6 2 4 6 2 4 6 2 4 6 2 4 6 2 4 6 2 4 6 2 4 6 
1 2 3 5 10 15 6 12 18 9 18 27 7 14 21 8 16 24 9 18 27 11 22 33 51 102 153 16 32 48 16 32 48 16 32 48 16 32 48 16 32 48 16 32 48 16 32 48 16 32 48 16 32 48 16 32 48 16 32 48 16 32 48 16 32 48 16 32 48 16 32 48 16 32 48 16 32 48 16 32 48 16 32 48 16 32 48 16 32 48 7 14 21 5 10 15 4 8 12 4 8 12 3 6 9 3 6 9 3 6 9 3 6 9 2 4 6 2 4 6 2 4 6 2 4 6 2 4 6 2 4 6 2 4 6 2 4 6 2 4 6 2 4 6 2 4 6 2 4 6 
16 32 48 16 32 48 16 32 48 16 32 48 16 32 48 16 32 48 16 32 48 16 32 48 16 32 48 16 32 48 16 32 48 16 32 48 16 32 48 16 32 48 16 32 48 16 32 48 16 32 48 16 32 48 16 32 48 16 32 48 16 32 48 16 32 48 16 32 48 16 32 48 16 32 48 16 32 48 16 32 48 16 32 48 16 32 48 10 20 30 7 14 21 5 10 15 4 8 12 4 8 12 3 6 9 3 6 9 3 6 9 3 6 9 2 4 6 2 4 6 2 4 6 2 4 6 2 4 6 2 4 6 2 4 6 2 4 6 2 4 6 2 4 6 2 4 6 2 4 6 
1 2 3 5 10 15 6 12 18 9 18 27 7 14 21 8 16 24 9 18 27 11 22 33 51 102 153 16 32 48 16 32 48 16 32 48 16 32 48 16 32 48 16 32 48 16 32 48 16 32 48 16 32 48 16 32 48 16 32 48 16 32 48 16 32 48 16 32 48 16 32 48 16 32 48 16 32 48 16 32 48 16 32 48 16 32 48 16 32 48 7 14 21 5 10 15 4 8 12 4 8 12 3 6 9 3 6 9 3 6 9 3 6 9 2 4 6 2 4 6 2 4 6 2 4 6 2 4 6 2 4 6 2 4 6 2 4 6 2 4 6 2 4 6 2 4 6 2 4 6 
1 2 3 5 10 15 4 8 12 5 10 15 6 12 18 6 12 18 7 14 21 9 18 27 19 38 57 18 36 54 16 32 48 16 32 48 16 32 48 16 32 48 16 32 48 16 32 48 16 32 48 16 32 48 16 32 48 16 32 48 16 32 48 16 32 48 16 32 48 16 32 48 16 32 48 16 32 48 16 32 48 16 32 48 16 32 48 16 32 48 7 14 21 5 10 15 4 8 12 4 8 12 3 6 9 3 6 9 3 6 9 3 6 9 2 4 6 2 4 6 2 4 6 2 4 6 2 4 6 2 4 6 2 4 6 2 4 6 2 4 6 2 4 6 2 4 6 2 4 6 
1 2 3 4 8 12 4 8 12 4 8 12 5 10 15 6 12 18 6 12 18 8 16 24 11 22 33 13 26 39 16 32 48 16 32 48 16 32 48 16 32 48 16 32 48 16 32 48 16 32 48 16 32 48 16 32 48 16 32 48 16 32 48 16 32 48 16 32 48 16 32 48 16 32 48 16 32 48 16 32 48 16 32 48 16 32 48 16 32 48 10 20 30 5 10 15 4 8 12 4 8 12 3 6 9 3 6 9 3 6 9 3 6 9 2 4 6 2 4 6 2 4 6 2 4 6 2 4 6 2 4 6 2 4 6 2 4 6 2 4 6 2 4 6 2 4 6 2 4 6 
1 2 3 4 8 12 4 8 12 4 8 12 4 8 12 5 10 15 5 10 15 7 14 21 8 16 24 11 22 33 87 174 5 16 32 48 16 32 48 16 32 48 16 32 48 39 78 117 16 32 48 16 32 48 16 32 48 16 32 48 16 32 48 16 32 48 16 32 48 16 32 48 16 32 48 16 32 48 16 32 48 16 32 48 16 32 48 16 32 48 13 26 39 5 10 15 4 8 12 4 8 12 3 6 9 3 6 9 3 6 9 3 6 9 2 4 6 2 4 6 2 4 6 2 4 6 2 4 6 2 4 6 2 4 6 2 4 6 2 4 6 2 4 6 2 4 6 2 4 6 
1 2 3 4 8 12 4 8 12 4 8 12 4 8 12 5 10 15 5 10 15 5 10 15 7 14 21 12 24 36 18 36 54 16 32 48 16 32 48 16 32 48 16 32 48 15 30 45 133 10 143 16 32 48 16 32 48 16 32 48 16 32 48 16 32 48 16 32 48 16 32 48 16 32 48 16 32 48 16 32 48 16 32 48 16 32 48 16 32 48 31 62 93 6 12 18 4 8 12 4 8 12 3 6 9 3 6 9 3 6 9 3 6 9 2 4 6 2 4 6 2 4 6 2 4 6 2 4 6 2 4 6 2 4 6 2 4 6 2 4 6 2 4 6 2 4 6 2 4 6 
1 2 3 3 6 9 4 8 12 4 8 12 4 8 12 4 8 12 5 10 15 5 10 15 7 14 21 8 16 24 20 40 60 16 32 48 16 32 48 16 32 48 25 50 75 12 24 36 16 32 48 16 32 48 16 32 48 16 32 48 16 32 48 16 32 48 16 32 48 16 32 48 16 32 48 16 32 48 16 32 48 16 32 48 16 32 48 16 32 48 25 50 75 6 12 18 4 8 12 4 8 12 3 6 9 3 6 9 3 6 9 3 6 9 2 4 6 2 4 6 2 4 6 2 4 6 2 4 6 2 4 6 2 4 6 2 4 6 2 4 6 2 4 6 2 4 6 2 4 6 
1 2 3 3 6 9 4 8 12 4 8 12 4 8 12 4 8 12 5 10 15 5 10 15 6 12 18 8 16 24 14 28 42 34 68 102 20 40 60 16 32 48 12 24 36 10 20 30 152 48 200 16 32 48 16 32 48 16 32 48 16 32 48 16 32 48 16 32 48 16 32 48 16 32 48 16 32 48 16 32 48 16 32 48 16 32 48 16 32 48 13 26 39 6 12 18 4 8 12 4 8 12 3 6 9 3 6 9 3 6 9 3 6 9 2 4 6 2 4 6 2 4 6 2 4 6 2 4 6 2 4 6 2 4 6 2 4 6 2 4 6 2 4 6 2 4 6 2 4 6 
1 2 3 3 6 9 3 6 9 4 8 12 4 8 12 4 8 12 4 8 12 5 10 15 6 12 18 8 16 24 18 36 54 11 22 33 14 28 42 11 22 33 9 18 27 9 18 27 13 26 39 16 32 48 16 32 48 16 32 48 16 32 48 16 32 48 16 32 48 16 32 48 16 32 48 16 32 48 16 32 48 16 32 48 16 32 48 16 32 48 46 92 138 6 12 18 4 8 12 4 8 12 3 6 9 3 6 9 3 6 9 2 4 6 2 4 6 2 4 6 2 4 6 2 4 6 2 4 6 2 4 6 2 4 6 2 4 6 2 4 6 2 4 6 2 4 6 2 4 6 
1 2 3 3 6 9 3 6 9 3 6 9 4 8 12 4 8 12 4 8 12 5 10 15 6 12 18 10 20 30 9 18 27 8 16 24 18 36 54 8 16 24 7 14 21 8 16 24 18 36 54 16 32 48 16 32 48 16 32 48 16 32 48 16 32 48 16 32 48 16 32 48 16 32 48 16 32 48 16 32 48 16 32 48 16 32 48 16 32 48 32 64 96 7 14 21 4 8 12 3 6 9 3 6 9 3 6 9 3 6 9 2 4 6 2 4 6 2 4 6 2 4 6 2 4 6 2 4 6 2 4 6 2 4 6 2 4 6 2 4 6 2 4 6 2 4 6 2 4 6 
1 2 3 3 6 9 3 6 9 3 6 9 3 6 9 3 6 9 4 8 12 4 8 12 5 10 15 9 18 27 7 14 21 7 14 21 7 14 21 7 14 21 7 14 21 7 14 21 10 20 30 48 96 144 16 32 48 16 32 48 16 32 48 16 32 48 16 32 48 16 32 48 16 32 48 16 32 48 16 32 48 16 32 48 16 32 48 16 32 48 9 18 27 6 12 18 4 8 12 3 6 9 3 6 9 3 6 9 3 6 9 2 4 6 2 4 6 2 4 6 2 4 6 2 4 6 2 4 6 2 4 6 2 4 6 2 4 6 2 4 6 2 4 6 2 4 6 2 4 6 
1 2 3 2 4 6 3 6 9 3 6 9 3 6 9 3 6 9 3 6 9 4 8 12 4 8 12 7 14 21 6 12 18 6 12 18 5 10 15 6 12 18 6 12 18 7 14 21 9 18 27 16 32 48 16 32 48 16 32 48 16 32 48 16 32 48 16 32 48 16 32 48 16 32 48 16 32 48 16 32 48 16 32 48 16 32 48 39 78 117 8 16 24 5 10 15 4 8 12 3 6 9 3 6 9 3 6 9 3 6 9 2 4 6 2 4 6 2 4 6 2 4 6 2 4 6 2 4 6 2 4 6 2 4 6 2 4 6 2 4 6 2 4 6 2 4 6 2 4 6 
1 2 3 2 4 6 3 6 9 3 6 9 3 6 9 3 6 9 3 6 9 3 6 9 4 8 12 4 8 12 5 10 15 5 10 15 5 10 15 5 10 15 6 12 18 6 12 18 8 16 24 18 36 54 16 32 48 16 32 48 16 32 48 16 32 48 16 32 48 16 32 48 16 32 48 16 32 48 16 32 48 16 32 48 16 32 48 15 30 45 7 14 21 5 10 15 4 8 12 3 6 9 3 6 9 3 6 9 3 6 9 2 4 6 2 4 6 2 4 6 2 4 6 2 4 6 2 4 6 2 4 6 2 4 6 2 4 6 2 4 6 2 4 6 2 4 6 2 4 6 
1 2 3 2 4 6 3 6 9 3 6 9 3 6 9 3 6 9 3 6 9 3 6 9 3 6 9 4 8 12 4 8 12 5 10 15 5 10 15 5 10 15 5 10 15 6 12 18 6 12 18 9 18 27 15 30 45 16 32 48 16 32 48 16 32 48 16 32 48 16 32 48 16 32 48 16 32 48 16 32 48 16 32 48 16 32 48 16 32 48 7 14 21 5 10 15 4 8 12 3 6 9 3 6 9 3 6 9 3 6 9 2 4 6 2 4 6 2 4 6 2 4 6 2 4 6 2 4 6 2 4 6 2 4 6 2 4 6 2 4 6 2 4 6 2 4 6 2 4 6 
1 2 3 2 4 6 3 6 9 3 6 9 3 6 9 3 6 9 3 6 9 3 6 9 3 6 9 3 6 9 4 8 12 4 8 12 5 10 15 5 10 15 5 10 15 6 12 18 6 12 18 8 16 24 132 8 140 16 32 48 16 32 48 16 32 48 16 32 48 16 32 48 16 32 48 16 32 48 16 32 48 16 32 48 40 80 120 16 32 48 24 48 72 5 10 15 4 8 12 3 6 9 3 6 9 3 6 9 2 4 6 2 4 6 2 4 6 2 4 6 2 4 6 2 4 6 2 4 6 2 4 6 2 4 6 2 4 6 2 4 6 2 4 6 2 4 6 2 4 6 
1 2 3 1 2 3 3 6 9 3 6 9 3 6 9 3 6 9 3 6 9 3 6 9 3 6 9 3 6 9 3 6 9 4 8 12 4 8 12 5 10 15 5 10 15 5 10 15 6 12 18 8 16 24 66 132 198 148 40 188 26 52 78 16 32 48 16 32 48 16 32 48 16 32 48 16 32 48 16 32 48 16 32 48 12 24 36 15 30 45 15 30 45 5 10 15 3 6 9 3 6 9 3 6 9 3 6 9 2 4 6 2 4 6 2 4 6 2 4 6 2 4 6 2 4 6 2 4 6 2 4 6 2 4 6 2 4 6 2 4 6 2 4 6 2 4 6 1 2 3 
1 2 3 1 2 3 2 4 6 3 6 9 3 6 9 3 6 9 3 6 9 3 6 9 3 6 9 3 6 9 3 6 9 4 8 12 4 8 12 4 8 12 5 10 15 5 10 15 6 12 18 7 14 21 45 90 135 47 94 141 23 46 69 19 38 57 56 112 168 16 32 48 16 32 48 55 110 165 16 32 48 38 76 114 8 16 24 9 18 27 7 14 21 4 8 12 3 6 9 3 6 9 3 6 9 3 6 9 2 4 6 2 4 6 2 4 6 2 4 6 2 4 6 2 4 6 2 4 6 2 4 6 2 4 6 2 4 6 2 4 6 2 4 6 2 4 6 1 2 3 
1 2 3 1 2 3 2 4 6 3 6 9 3 6 9 3 6 9 3 6 9 3 6 9 3 6 9 3 6 9 3 6 9 3 6 9 4 8 12 4 8 12 4 8 12 4 8 12 5 10 15 8 16 24 19 38 57 9 18 27 12 24 36 11 22 33 15 30 45 16 32 48 16 32 48 13 26 39 10 20 30 9 18 27 7 14 21 7 14 21 6 12 18 4 8 12 3 6 9 3 6 9 3 6 9 2 4 6 2 4 6 2 4 6 2 4 6 2 4 6 2 4 6 2 4 6 2 4 6 2 4 6 2 4 6 2 4 6 2 4 6 2 4 6 2 4 6 1 2 3 
1 2 3 1 2 3 2 4 6 3 6 9 3 6 9 3 6 9 3 6 9 3 6 9 3 6 9 3 6 9 3 6 9 3 6 9 3 6 9 4 8 12 4 8 12 4 8 12 4 8 12 5 10 15 7 14 21 7 14 21 7 14 21 9 18 27 60 120 180 16 32 48 16 32 48 15 30 45 8 16 24 6 12 18 6 12 18 6 12 18 5 10 15 4 8 12 3 6 9 3 6 9 3 6 9 2 4 6 2 4 6 2 4 6 2 4 6 2 4 6 2 4 6 2 4 6 2 4 6 2 4 6 2 4 6 2 4 6 2 4 6 2 4 6 2 4 6 1 2 3 
1 2 3 1 2 3 2 4 6 2 4 6 3 6 9 3 6 9 3 6 9 3 6 9 3 6 9 3 6 9 3 6 9 3 6 9 3 6 9 4 8 12 4 8 12 4 8 12 4 8 12 5 10 15 6 12 18 6 12 18 7 14 21 8 16 24 34 68 102 16 32 48 16 32 48 32 64 96 7 14 21 6 12 18 5 10 15 5 10 15 4 8 12 3 6 9 3 6 9 3 6 9 3 6 9 2 4 6 2 4 6 2 4 6 2 4 6 2 4 6 2 4 6 2 4 6 2 4 6 2 4 6 2 4 6 2 4 6 2 4 6 2 4 6 2 4 6 1 2 3 
1 2 3 1 2 3 1 2 3 2 4 6 3 6 9 3 6 9 3 6 9 3 6 9 3 6 9 3 6 9 3 6 9 3 6 9 3 6 9 3 6 9 4 8 12 4 8 12 4 8 12 4 8 12 5 10 15 6 12 18 6 12 18 8 16 24 18 36 54 16 32 48 16 32 48 18 36 54 7 14 21 5 10 15 5 10 15 4 8 12 4 8 12 3 6 9 3 6 9 3 6 9 2 4 6 2 4 6 2 4 6 2 4 6 2 4 6 2 4 6 2 4 6 2 4 6 2 4 6 2 4 6 2 4 6 2 4 6 2 4 6 2 4 6 1 2 3 1 2 3 
1 2 3 1 2 3 1 2 3 2 4 6 2 4 6 3 6 9 3 6 9 3 6 9 3 6 9 3 6 9 3 6 9 3 6 9 3 6 9 3 6 9 4 8 12 4 8 12 4 8 12 4 8 12 4 8 12 5 10 15 6 12 18 7 14 21 37 74 111 108 216 68 25 50 75 22 44 66 6 12 18 5 10 15 5 10 15 4 8 12 4 8 12 3 6 9 3 6 9 3 6 9 2 4 6 2 4 6 2 4 6 2 4 6 2 4 6 2 4 6 2 4 6 2 4 6 2 4 6 2 4 6 2 4 6 2 4 6 2 4 6 2 4 6 1 2 3 1 2 3 
1 2 3 1 2 3 1 2 3 2 4 6 2 4 6 3 6 9 3 6 9 3 6 9 3 6 9 3 6 9 3 6 9 3 6 9 3 6 9 3 6 9 3 6 9 4 8 12 4 8 12 4 8 12 4 8 12 5 10 15 5 10 15 6 12 18 15 30 45 16 32 48 56 112 168 8 16 24 5 10 15 5 10 15 4 8 12 4 8 12 3 6 9 3 6 9 3 6 9 2 4 6 2 4 6 2 4 6 2 4 6 2 4 6 2 4 6 2 4 6 2 4 6 2 4 6 2 4 6 2 4 6 2 4 6 2 4 6 2 4 6 2 4 6 1 2 3 1 2 3 
1 2 3 1 2 3 1 2 3 2 4 6 2 4 6 2 4 6 3 6 9 3 6 9 3 6 9 3 6 9 3 6 9 3 6 9 3 6 9 3 6 9 3 6 9 3 6 9 4 8 12 4 8 12 4 8 12 4 8 12 5 10 15 5 10 15 7 14 21 11 22 33 13 26 39 7 14 21 5 10 15 4 8 12 4 8 12 4 8 12 3 6 9 3 6 9 3 6 9 2 4 6 2 4 6 2 4 6 2 4 6 2 4 6 2 4 6 2 4 6 2 4 6 2 4 6 2 4 6 2 4 6 2 4 6 2 4 6 2 4 6 2 4 6 1 2 3 1 2 3 
1 2 3 1 2 3 1 2 3 1 2 3 2 4 6 2 4 6 3 6 9 3 6 9 3 6 9 3 6 9 3 6 9 3 6 9 3 6 9 3 6 9 3 6 9 3 6 9 4 8 12 4 8 12 4 8 12 4 8 12 5 10 15 5 10 15 7 14 21 9 18 27 15 30 45 7 14 21 5 10 15 4 8 12 4 8 12 3 6 9 3 6 9 3 6 9 2 4 6 2 4 6 2 4 6 2 4 6 2 4 6 2 4 6 2 4 6 2 4 6 2 4 6 2 4 6 2 4 6 2 4 6 2 4 6 2 4 6 2 4 6 1 2 3 1 2 3 1 2 3 
