P3
3 3
256
1 2 3 4 8 12 2 4 6 
1 2 3 16 32 48 3 6 9 
1 2 3 16 32 48 3 6 9 
